# xmcd
#
# Track frame offsets: 
#        150
#        23330
#        47335
#        62996
#        81917
#        102818
#        140925
#        159958
#        176753
#        194756
#        222425
#        245455
#        261503
#
# Disc length: 3756 seconds
#
# Revision: 0
# Processed by: cddbd v1.5.1PL0 Copyright (c) Steve Scherf et al.
# Submitted via: ExactAudioCopy v0.95a4
#
DISCID=bc0eaa0d
DTITLE=Crazy Texas Gypsies - Blues for the Soul
DYEAR=2001
DGENRE=Blues
TTITLE0=Fishin'
TTITLE1=Can't Let Go
TTITLE2=Hold Me Tight
TTITLE3=High Heeled Woman\\
TTITLE4=Long Good Byes
TTITLE5=Time After Time
TTITLE6=Angel Eyes
TTITLE7=Whiskey
TTITLE8=Crazy For Your Love
TTITLE9=Dancin' Like A Gypsy
TTITLE10=Four Walls
TTITLE11=Funkin' Dunkin'
TTITLE12=Get To Find My Baby
EXTD=
EXTT0=
EXTT1=
EXTT2=
EXTT3=
EXTT4=
EXTT5=
EXTT6=
EXTT7=
EXTT8=
EXTT9=
EXTT10=
EXTT11=
EXTT12=
PLAYORDER=
